<svg width="334mm" height="76.7mm" version="1.1" viewBox="0 0 334 76.7" xmlns="http://www.w3.org/2000/svg">
  <g transform="translate(-11.2 -11.6)" fill="#fff">
   <g transform="translate(-9.59e-5 4.97)">
    <circle cx="34.3" cy="18.7" r="3"/>
    <circle cx="65.7" cy="18.7" r="3"/>
    <circle cx="50" cy="12.7" r="6"/>
    <circle cx="50" cy="34.3" r="9"/>
    <g transform="rotate(120 49.9 50.7)">
     <circle cx="34.3" cy="18.7" r="3"/>
     <circle cx="65.7" cy="18.7" r="3"/>
     <circle cx="50" cy="12.7" r="6"/>
     <circle cx="50" cy="34.3" r="9"/>
    </g>
    <g transform="matrix(.5 .866 .866 -.5 -18.8 32.9)">
     <circle cx="34.3" cy="18.7" r="3"/>
     <circle cx="65.7" cy="18.7" r="3"/>
     <circle cx="50" cy="12.7" r="6"/>
     <circle cx="50" cy="34.3" r="9"/>
    </g>
   </g>
  </g>
  <path fill="#fff" d="m100 57.3v-38.5h6.33l9.77 24.9q0.362 0.878 0.853 2.22 0.517 1.32 1.03 2.74 0.543 1.4 0.956 2.56 0.413-1.16 0.93-2.56 0.543-1.42 1.03-2.74 0.517-1.34 0.853-2.22l9.61-24.9h6.36v38.5h-4.57v-22.3q0-2.07 0.0517-4.6 0.0517-2.56 0.103-5.06-1.11 3.05-2.04 5.58-0.93 2.53-1.55 4.08l-8.94 22.3h-3.82l-8.99-22.3q-0.594-1.47-1.5-3.85-0.904-2.38-2.02-5.25 0.0775 2.38 0.103 4.75 0.0517 2.38 0.0517 4.34v22.3zm54.1 0.62q-4 0-6.85-1.83-2.82-1.83-4.31-5.04-1.5-3.23-1.5-7.34 0-4.16 1.58-7.39t4.37-5.06q2.79-1.86 6.41-1.86 3.8 0 6.59 1.81t4.29 5.04q1.52 3.23 1.52 7.47v1.21h-20.4q0.155 4 2.3 6.51 2.14 2.51 6.02 2.51 2.92 0 4.75-1.34 1.86-1.34 2.48-3.46h4.39q-0.517 2.61-2.14 4.6-1.63 1.96-4.08 3.07-2.43 1.11-5.4 1.11zm-8.27-16.8h16q-0.362-3.59-2.51-5.71-2.14-2.12-5.5-2.12t-5.48 2.12q-2.12 2.12-2.48 5.71zm35.3-11.1v3.77h-5.53v16.9q0 1.58 0.646 2.22 0.672 0.62 2.35 0.62h2.53v3.77h-2.95q-6.98 0-6.98-6.15v-17.4h-4.86v-3.77h4.86v-7.44h4.39v7.44zm11.6 27.7q-4.06 0-6.8-2.09-2.71-2.09-2.71-6.18 0-2.35 0.904-3.82 0.93-1.47 2.45-2.3 1.55-0.853 3.49-1.29 1.96-0.439 4-0.698 2.61-0.362 4.11-0.543 1.5-0.181 2.12-0.594 0.646-0.413 0.646-1.45v-0.258q0-2.22-1.6-3.67-1.58-1.45-4.44-1.45-2.84 0-4.68 1.4-1.81 1.37-1.96 3.41h-4.47q0.129-2.51 1.55-4.44 1.42-1.96 3.88-3.1 2.45-1.14 5.68-1.14 4.78 0 7.57 2.48 2.82 2.45 2.82 6.51v18.8h-4.34v-3.88h-0.103q-0.491 0.982-1.45 1.99-0.956 0.982-2.58 1.65-1.6 0.646-4.08 0.646zm0.62-3.93q2.69 0 4.37-0.956 1.68-0.982 2.45-2.53 0.775-1.55 0.775-3.33v-3.41q-0.491 0.465-2.61 0.853-2.12 0.362-4.47 0.698-1.58 0.207-3 0.723-1.4 0.491-2.27 1.42-0.878 0.904-0.878 2.45 0 1.91 1.5 3 1.52 1.09 4.13 1.09zm26 4.13q-2.92 0-5.3-0.956-2.38-0.956-3.85-2.89-1.47-1.96-1.65-4.94h4.34q0.465 5.01 6.36 5.01 2.84 0 4.47-1.19 1.65-1.19 1.65-3 0-1.55-1.14-2.48-1.14-0.93-2.97-1.34l-4.39-1.03q-7.7-1.81-7.7-7.75 0-2.33 1.24-4.11 1.27-1.81 3.49-2.82 2.25-1.03 5.17-1.03 2.84 0 5.09 1.09 2.27 1.06 3.59 3.02 1.34 1.96 1.42 4.68h-4.29q-0.0258-2.17-1.6-3.59-1.58-1.42-4.21-1.42-2.51 0-4 1.21t-1.5 2.97q0 1.55 1.14 2.51 1.14 0.93 3.1 1.4l4.39 1.03q3.93 0.93 5.76 2.79 1.83 1.83 1.83 4.78 0 2.53-1.37 4.34-1.37 1.81-3.75 2.76-2.35 0.956-5.32 0.956zm26-27.9v3.77h-5.53v16.9q0 1.58 0.646 2.22 0.672 0.62 2.35 0.62h2.53v3.77h-2.95q-6.98 0-6.98-6.15v-17.4h-4.86v-3.77h4.86v-7.44h4.39v7.44zm11.6 27.7q-4.06 0-6.8-2.09-2.71-2.09-2.71-6.18 0-2.35 0.904-3.82 0.93-1.47 2.45-2.3 1.55-0.853 3.49-1.29 1.96-0.439 4-0.698 2.61-0.362 4.11-0.543 1.5-0.181 2.12-0.594 0.646-0.413 0.646-1.45v-0.258q0-2.22-1.6-3.67-1.58-1.45-4.44-1.45-2.84 0-4.68 1.4-1.81 1.37-1.96 3.41h-4.47q0.129-2.51 1.55-4.44 1.42-1.96 3.88-3.1t5.68-1.14q4.78 0 7.57 2.48 2.82 2.45 2.82 6.51v18.8h-4.34v-3.88h-0.103q-0.491 0.982-1.45 1.99-0.956 0.982-2.58 1.65-1.6 0.646-4.08 0.646zm0.62-3.93q2.69 0 4.37-0.956 1.68-0.982 2.45-2.53 0.775-1.55 0.775-3.33v-3.41q-0.491 0.465-2.61 0.853-2.12 0.362-4.47 0.698-1.58 0.207-3 0.723-1.4 0.491-2.27 1.42-0.878 0.904-0.878 2.45 0 1.91 1.5 3 1.52 1.09 4.13 1.09zm29.4 4.03q-2.66 0-4.91-1.14-2.25-1.16-3.72-3.51h-0.0517v4.13h-4.29v-38.5h4.39v15.2h0.0517q1.32-2.3 3.59-3.41 2.27-1.14 4.94-1.14 3.57 0 6.23 1.78t4.13 4.99q1.47 3.18 1.47 7.39 0 4.19-1.47 7.39-1.47 3.18-4.13 4.99-2.66 1.78-6.23 1.78zm-0.672-3.95q3.54 0 5.79-2.58 2.27-2.61 2.27-7.62t-2.27-7.62q-2.25-2.61-5.79-2.61-3.8 0-6.05 2.82-2.22 2.79-2.22 7.42 0 4.63 2.22 7.42 2.25 2.79 6.05 2.79zm20-35.1v38.5h-4.39v-38.5zm15.8 39.1q-4 0-6.85-1.83-2.82-1.83-4.31-5.04-1.5-3.23-1.5-7.34 0-4.16 1.58-7.39 1.58-3.23 4.37-5.06 2.79-1.86 6.41-1.86 3.8 0 6.59 1.81t4.29 5.04q1.52 3.23 1.52 7.47v1.21h-20.4q0.155 4 2.3 6.51 2.14 2.51 6.02 2.51 2.92 0 4.75-1.34 1.86-1.34 2.48-3.46h4.39q-0.517 2.61-2.14 4.6-1.63 1.96-4.08 3.07-2.43 1.11-5.4 1.11zm-8.27-16.8h16q-0.362-3.59-2.51-5.71-2.14-2.12-5.5-2.12t-5.48 2.12q-2.12 2.12-2.48 5.71z" stroke-width=".265" aria-label="Metastable"/>
 </svg>
 