<svg width="77.7mm" height="76.7mm" version="1.1" viewBox="0 0 77.7 76.7" xmlns="http://www.w3.org/2000/svg">
 <g transform="translate(-11.2 -6.67)">
  <path d="m84.3 69.8-34.3 19.8-34.3-19.8 5.84-34.6 28.5-24.8 28.5 24.8z" display="none" fill="none" stroke="#fff" stroke-linecap="round" stroke-linejoin="round" stroke-miterlimit="0" stroke-width=".792"/>
  <g transform="translate(-9.59e-5)" fill="#fff">
   <circle cx="34.3" cy="18.7" r="3"/>
   <circle cx="65.7" cy="18.7" r="3"/>
   <circle cx="50" cy="12.7" r="6"/>
   <circle cx="50" cy="34.3" r="9"/>
   <g transform="rotate(120 49.9 50.7)">
    <circle cx="34.3" cy="18.7" r="3"/>
    <circle cx="65.7" cy="18.7" r="3"/>
    <circle cx="50" cy="12.7" r="6"/>
    <circle cx="50" cy="34.3" r="9"/>
   </g>
   <g transform="matrix(.5 .866 .866 -.5 -18.8 32.9)">
    <circle cx="34.3" cy="18.7" r="3"/>
    <circle cx="65.7" cy="18.7" r="3"/>
    <circle cx="50" cy="12.7" r="6"/>
    <circle cx="50" cy="34.3" r="9"/>
   </g>
  </g>
 </g>
</svg>
